<svg xmlns="http://www.w3.org/2000/svg" width="900" height="900" viewBox="0 0 900 900" role="img" aria-labelledby="title desc">
<title>SafePlay Guardian stacked logo</title><desc>Stacked SafePlay Guardian logo with shield, family, and controller icon.</desc>
<rect width="900" height="900" fill="transparent"/>

    <g transform="translate(310,80) scale(1.4)">
      <defs>
        <linearGradient id="gShield" x1="0" y1="0" x2="1" y2="1">
          <stop offset="0%" stop-color="#168A73"/>
          <stop offset="100%" stop-color="#36C2A0"/>
        </linearGradient>
        <filter id="softShadow" x="-20%" y="-20%" width="140%" height="140%">
          <feDropShadow dx="0" dy="7" stdDeviation="8" flood-color="#0F2433" flood-opacity="0.16"/>
        </filter>
      </defs>
      <path d="M100 8 L180 42 L171 145 C166 197 136 238 100 254 C64 238 34 197 29 145 L20 42 Z" fill="url(#gShield)" filter="url(#softShadow)"/>
      <path d="M100 27 L162 53 L154 141 C150 181 128 213 100 229 C72 213 50 181 46 141 L38 53 Z" fill="#0F2433"/>
      <path d="M100 27 L162 53 L154 141 C150 181 128 213 100 229 C72 213 50 181 46 141 L38 53 Z" fill="none" stroke="#FFFFFF" stroke-width="7" stroke-linejoin="round"/>
      <!-- subtle split for layered protection -->
      <path d="M100 28 L100 228 C72 212 51 181 47 141 L39 53 Z" fill="#152F43" opacity="0.55"/>
      <!-- guardian family figures -->
      <circle cx="92" cy="76" r="22" fill="#FFFFFF"/>
      <path d="M60 143 C61 109 73 93 92 93 C112 93 123 110 124 143 Z" fill="#FFFFFF"/>
      <circle cx="126" cy="100" r="16" fill="#FFFFFF"/>
      <path d="M105 147 C106 123 114 111 127 111 C142 111 151 126 152 147 Z" fill="#FFFFFF"/>
      <!-- controller -->
      <path d="M54 155 C60 138 73 132 89 137 L112 137 C128 132 141 138 147 155 L160 190 C165 204 155 216 142 209 L123 194 L77 194 L58 209 C45 216 35 204 40 190 Z" fill="#FFFFFF"/>
      <path d="M65 165 H88 M76.5 153.5 V176.5" stroke="#0F2433" stroke-width="8" stroke-linecap="round"/>
      <circle cx="126" cy="160" r="5.6" fill="#168A73"/>
      <circle cx="142" cy="169" r="5.6" fill="#168A73"/>
      <circle cx="132" cy="181" r="5.6" fill="#168A73"/>
      <circle cx="147" cy="152" r="5.6" fill="#168A73"/>
    </g>
<g font-family="Inter, Arial, Helvetica, sans-serif" text-anchor="middle">
  <text x="450" y="525" font-size="96" font-weight="800" letter-spacing="-3" fill="#111827">Safe<tspan fill="#168A73">Play</tspan></text>
  <text x="450" y="602" font-size="48" font-weight="700" letter-spacing="20" fill="#168A73">GUARDIAN</text>
  <line x1="230" y1="662" x2="390" y2="662" stroke="#DDE5E3" stroke-width="2"/>
  <g transform="translate(425,639)"><path d="M25 2 L45 11 L42 36 C41 48 35 57 25 63 C15 57 9 48 8 36 L5 11 Z" fill="none" stroke="#168A73" stroke-width="4" stroke-linejoin="round"/><path d="M18 33 L23 38 L34 26" fill="none" stroke="#168A73" stroke-width="4" stroke-linecap="round" stroke-linejoin="round"/></g>
  <line x1="510" y1="662" x2="670" y2="662" stroke="#DDE5E3" stroke-width="2"/>
  <text x="450" y="724" font-size="28" font-weight="500" fill="#6B7280">Safer play. Transparent protection.</text>
</g>
</svg>